# xmcd
#
# Track frame offsets:
# 150
# 18505
# 38566
# 51585
# 68937
# 92070
# 109833
# 126565
# 141506
# 159262
#
# Disc length: 2350 seconds
#
# Revision: 0
# Processed by: cddbd v1.4PL0 Copyright (c) Steve Scherf et al.
# Submitted via: Audion 3.0.2 (http://www.panic.com/audion/)
#
DISCID=90092c0a
DTITLE=Bill Miller - Old Dreams and New Hopes
DYEAR=1900
DGENRE=
TTITLE0=Westwind
TTITLE1=Legends Never Die
TTITLE2=Some Of Shelley's Blues
TTITLE3=I'll Wait For You
TTITLE4=old Dreams and New hopes
TTITLE5=Borderline
TTITLE6=No One Else But You
TTITLE7=Dance The Blues Away
TTITLE8=Billy Ray
TTITLE9=Under One Roof
EXTD=
EXTT0=
EXTT1=
EXTT2=
EXTT3=
EXTT4=
EXTT5=
EXTT6=
EXTT7=
EXTT8=
EXTT9=
PLAYORDER=
